<svg width="128" height="128" viewBox="0 0 128 128" fill="none" xmlns="http://www.w3.org/2000/svg">
<rect width="128" height="128" rx="20" fill="white"/>
<path d="M43.8934 108.569C49.1349 100.455 57.4108 101.327 60.5311 101.327C64.6702 101.327 71.1743 103.099 74.1307 107.824C76.8262 112.133 75.9045 113.731 81.8172 119.638C83.7801 121.599 77.0872 121.409 75.3133 121.409C73.5394 121.409 65.8527 122 59.3484 122C52.2173 122 38.0682 117.868 37.4061 117.58C36.5822 117.221 31.5581 114.912 32.1483 113.731C34.2179 109.597 38.6522 116.683 43.8934 108.569ZM89.8504 25.3966C104.447 4.98283 108.773 8.65418 110.935 9.73452C113.098 10.8148 115.454 14.0556 115.802 18.9162C117.423 41.5987 108.689 61.0556 104.448 64.8224C99.7344 69.0079 98.0647 73.7005 100.914 83.3185L101.494 85.213C104.347 94.8639 102.775 100.08 101.204 104.789C99.9266 108.616 93.6912 115.184 87.3494 118.282C86.2676 118.853 86.5554 117.969 86.8348 117.455C89.0293 113.362 83.5219 105.298 82.2811 99.9279C79.7858 89.127 75.2525 84.266 72.0086 81.0255C68.7648 77.7852 68.7636 77.7842 67.6824 75.0841C66.6586 72.5263 64.6304 60.202 63.8983 55.1017C62.5241 45.5286 62.305 45.213 65.2615 45.213C68.2179 45.2131 71.2169 46.1483 73.0897 46.4601C74.0707 46.6232 75.4969 45.4523 76.5604 44.1584C76.4546 44.2312 78.975 40.6058 89.8504 25.3966ZM15.7791 25.3966C16.1692 22.6699 20.6452 6.49489 26.0516 8.11441C31.4581 9.73472 36.3246 16.7555 40.1092 25.3966C43.1418 32.321 46.0568 42.1395 46.5975 46.4601C46.8678 48.6197 47.1381 47.5402 50.3817 46.4601C53.547 45.4061 55.8006 44.6224 58.1658 45.213C60.5304 45.8039 59.9393 48.1671 59.9393 59.3888C59.9394 64.8226 61.5778 72.2493 57.41 77.2453C54.7058 80.4867 44.4342 92.9072 37.4061 99.9279C33.8719 103.458 31.4398 106.142 30.1854 108.569C29.0887 111.055 28.5299 109.605 28.3875 108.569L28.3113 108.176C27.576 104.348 26.6756 99.6592 26.0516 95.6076C23.4567 78.7589 23.8889 69.5051 24.4295 66.9835C11.9948 44.841 15.2383 29.178 15.7791 25.3966ZM54.0262 85.9689C61.4085 76.2485 70.2637 83.3156 71.327 85.9689C72.612 89.18 66.4611 96.7706 62.6766 96.7707C58.7756 96.7703 51.9761 88.6695 54.0262 85.9689ZM85.3221 70.7003C81.9337 70.7005 79.1873 73.4649 79.1873 76.8751C79.1874 80.2853 81.9338 83.0498 85.3221 83.05C88.7106 83.05 91.4577 80.2854 91.4578 76.8751C91.4578 73.4648 88.7106 70.7003 85.3221 70.7003ZM40.9578 71.6505C38.0908 71.6506 35.7666 73.9896 35.7664 76.8751C35.7667 79.7606 38.0908 82.1006 40.9578 82.1007C43.8249 82.1007 46.149 79.7606 46.1492 76.8751C46.1491 73.9896 43.825 71.6505 40.9578 71.6505Z" fill="#C80200"/>
<path d="M43.8934 108.569C49.1349 100.455 57.4108 101.327 60.5311 101.327C64.6702 101.327 71.1743 103.099 74.1307 107.824C76.8262 112.133 75.9045 113.731 81.8172 119.638C83.7801 121.599 77.0872 121.409 75.3133 121.409C73.5394 121.409 65.8527 122 59.3484 122C52.2173 122 38.0682 117.868 37.4061 117.58C36.5822 117.221 31.5581 114.912 32.1483 113.731C34.2179 109.597 38.6522 116.683 43.8934 108.569ZM89.8504 25.3966C104.447 4.98283 108.773 8.65418 110.935 9.73452C113.098 10.8148 115.454 14.0556 115.802 18.9162C117.423 41.5987 108.689 61.0556 104.448 64.8224C99.7344 69.0079 98.0647 73.7005 100.914 83.3185L101.494 85.213C104.347 94.8639 102.775 100.08 101.204 104.789C99.9266 108.616 93.6912 115.184 87.3494 118.282C86.2676 118.853 86.5554 117.969 86.8348 117.455C89.0293 113.362 83.5219 105.298 82.2811 99.9279C79.7858 89.127 75.2525 84.266 72.0086 81.0255C68.7648 77.7852 68.7636 77.7842 67.6824 75.0841C66.6586 72.5263 64.6304 60.202 63.8983 55.1017C62.5241 45.5286 62.305 45.213 65.2615 45.213C68.2179 45.2131 71.2169 46.1483 73.0897 46.4601C74.0707 46.6232 75.4969 45.4523 76.5604 44.1584C76.4546 44.2312 78.975 40.6058 89.8504 25.3966ZM15.7791 25.3966C16.1692 22.6699 20.6452 6.49489 26.0516 8.11441C31.4581 9.73472 36.3246 16.7555 40.1092 25.3966C43.1418 32.321 46.0568 42.1395 46.5975 46.4601C46.8678 48.6197 47.1381 47.5402 50.3817 46.4601C53.547 45.4061 55.8006 44.6224 58.1658 45.213C60.5304 45.8039 59.9393 48.1671 59.9393 59.3888C59.9394 64.8226 61.5778 72.2493 57.41 77.2453C54.7058 80.4867 44.4342 92.9072 37.4061 99.9279C33.8719 103.458 31.4398 106.142 30.1854 108.569C29.0887 111.055 28.5299 109.605 28.3875 108.569L28.3113 108.176C27.576 104.348 26.6756 99.6592 26.0516 95.6076C23.4567 78.7589 23.8889 69.5051 24.4295 66.9835C11.9948 44.841 15.2383 29.178 15.7791 25.3966ZM54.0262 85.9689C61.4085 76.2485 70.2637 83.3156 71.327 85.9689C72.612 89.18 66.4611 96.7706 62.6766 96.7707C58.7756 96.7703 51.9761 88.6695 54.0262 85.9689ZM85.3221 70.7003C81.9337 70.7005 79.1873 73.4649 79.1873 76.8751C79.1874 80.2853 81.9338 83.0498 85.3221 83.05C88.7106 83.05 91.4577 80.2854 91.4578 76.8751C91.4578 73.4648 88.7106 70.7003 85.3221 70.7003ZM40.9578 71.6505C38.0908 71.6506 35.7666 73.9896 35.7664 76.8751C35.7667 79.7606 38.0908 82.1006 40.9578 82.1007C43.8249 82.1007 46.149 79.7606 46.1492 76.8751C46.1491 73.9896 43.825 71.6505 40.9578 71.6505Z" fill="url(#paint0_linear_4_74)" fill-opacity="0.29"/>
<defs>
<linearGradient id="paint0_linear_4_74" x1="65.4999" y1="7.9996" x2="65.4999" y2="122" gradientUnits="userSpaceOnUse">
<stop stop-opacity="0"/>
<stop offset="1" stop-color="#FF0000"/>
</linearGradient>
</defs>
</svg>
